<svg width="24" height="24" viewBox="0 0 24 24" fill="none" xmlns="http://www.w3.org/2000/svg">
<path d="M6.08289 21C6.55889 18.1621 9.02666 16 11.9999 16C14.9732 16 17.441 18.1621 17.917 21" stroke="#0E0B2B" stroke-width="2" stroke-linecap="round" stroke-linejoin="round"/>
<path d="M12 3H5C3.89543 3 3 3.89543 3 5V19C3 20.1046 3.89543 21 5 21H19C20.1046 21 21 20.1046 21 19V12" stroke="black" stroke-width="2" stroke-linecap="round" stroke-linejoin="round"/>
<path d="M12 13C13.3807 13 14.5 11.8807 14.5 10.5C14.5 9.11929 13.3807 8 12 8C10.6193 8 9.5 9.11929 9.5 10.5C9.5 11.8807 10.6193 13 12 13Z" stroke="black" stroke-width="2" stroke-linecap="round" stroke-linejoin="round"/>
<path d="M20.5 3.5L19 0L17.5 3.5L14 5L17.5 6.5L19 10L20.5 6.5L24 5L20.5 3.5Z" fill="black"/>
</svg>
