<svg width="180" height="32" viewBox="0 0 180 32" fill="none" xmlns="http://www.w3.org/2000/svg">
<path d="M24.7413 0.0234375H17.5946C14.4017 4.14788 12.4142 9.99677 12.4177 15.835C12.4177 21.6714 14.4053 27.515 17.5964 31.6448H24.7413C22.6755 29.6945 21.3706 26.8714 20.5475 24.1461C18.9131 18.7259 18.9131 12.9441 20.5475 7.52388C21.3706 4.79855 22.6755 1.97366 24.7413 0.0234375ZM40.5084 0.0234375H33.3635C35.4293 1.97366 36.736 4.79855 37.5591 7.52388C39.1928 12.9319 39.1928 18.7381 37.5591 24.1461C36.736 26.8714 35.4293 29.6945 33.3635 31.6448H40.5102C43.7048 27.5203 45.6906 21.6732 45.6871 15.835C45.6871 9.99855 43.7013 4.15321 40.5084 0.0234375ZM32.6364 0.0234375H25.4773V31.6448H32.6364V0.0234375Z" fill="#8756E8"/>
<path d="M6.10844 15.8347C6.10844 12.6756 7.60178 3.94667 16.8409 0.0231111H7.98222C7.98222 0.0231111 0 5.32444 0 15.8347C0 26.3449 7.98222 31.6444 7.98222 31.6444H16.8409C7.60178 27.7209 6.10489 18.9938 6.10489 15.8347H6.10844ZM52 15.8347C52 12.6791 50.5031 3.94667 41.2622 0.0231111H50.1244C50.1244 0.0231111 58.1049 5.32622 58.1049 15.8347C58.1049 26.3413 50.1227 31.6444 50.1227 31.6444H41.264C50.5031 27.7209 52 18.9938 52 15.8347ZM119.675 9.07378C113.136 9.07378 108.421 13.9147 108.421 20.512C108.421 27.1093 113.136 31.9964 119.675 31.9964C126.215 31.9964 130.928 27.1538 130.928 20.512C130.928 13.8702 126.174 9.07378 119.675 9.07378ZM119.675 27.3244C116.153 27.3244 113.897 24.5387 113.897 20.512C113.897 16.4871 116.149 13.7404 119.675 13.7404C123.202 13.7404 125.493 16.4836 125.493 20.5138C125.493 24.5422 123.115 27.3244 119.675 27.3244ZM138.784 0H133.433V31.6551H138.784V0ZM177.824 27.3244C176.932 27.3244 176.464 26.768 176.464 25.5253V17.6818C176.464 12.4089 172.768 9.06667 166.949 9.06667C161.132 9.06667 157.86 12.0676 157.349 16.8249L157.268 17.6142C158.884 17.2832 160.515 17.0322 162.156 16.8622L162.533 16.8249C162.702 14.5547 164.53 13.2658 166.949 13.2658C169.543 13.2658 171.113 14.64 171.113 16.2684C171.113 17.2551 170.517 17.8524 169.33 18.0267L164.912 18.6276C160.028 19.2693 157.223 21.6711 157.223 25.5698C157.223 29.4702 160.452 32 164.912 32C168.183 32 170.859 30.7129 171.838 28.7431C172.091 30.8409 173.749 31.9147 176 31.9147C177.276 31.9147 178.549 31.6587 178.549 31.6587V27.2427C178.549 27.2427 178.123 27.328 177.828 27.328L177.824 27.3244ZM171.241 22.0533C171.241 25.3956 169.244 27.8827 165.803 27.8827C163.851 27.8827 162.574 26.8089 162.574 25.3102C162.574 23.6818 163.637 22.6542 165.803 22.3093L171.243 21.408L171.241 22.0533ZM73.76 0.0444444C67.3209 12.2827 63.3742 25.2693 61.6818 31.6747H67.6427C68.0249 29.8933 68.9049 26.6009 69.5449 24.4836H83.5769C84.2187 26.6009 85.0969 29.8933 85.4791 31.6747H91.4382C89.7422 25.2693 85.8009 12.2844 79.36 0.0444444H73.7582H73.76ZM71.0649 19.7511C72.6329 15.1573 74.6471 10.0284 76.5618 6.46756C78.4782 10.0284 80.4907 15.1573 82.0587 19.7511H71.0649ZM149.98 9.41511V2.85867H144.629V9.69778C142.233 9.59822 140.892 9.41156 140.892 9.41156V13.7369C140.892 13.7369 142.236 13.9253 144.629 14.0249V24.624C144.629 29.5964 147.858 31.9929 152.4 31.9929C153.588 31.9929 154.61 31.8222 155.118 31.6924V27.0222C154.695 27.152 153.845 27.3244 153.038 27.3244C151.253 27.3244 149.98 26.1653 149.98 24.0658V14.0444C151.696 13.9923 153.409 13.8898 155.118 13.7369V9.41156C153.252 9.57867 151.531 9.67111 149.98 9.71911V9.41156V9.41511ZM104.064 9.36711H103.207C101.315 14.3692 99.6642 19.4596 98.2613 24.6204C96.8613 19.4592 95.212 14.3687 93.3191 9.36711H87.696C90.4853 16.0604 93.6338 24.5529 95.4862 31.5431L95.5111 31.6036H101.017L101.042 31.5431C102.896 24.5529 106.043 16.0587 108.832 9.36711H104.064Z" fill="#8756E8"/>
</svg>
